# Blender v2.75 (sub 0) OBJ File: 'Kitchen collection_blend.blend'
# www.blender.org
mtllib glass_3.mtl
o glass_3
v 0.000054 0.284241 -0.911969
v 0.349051 0.284241 -0.842544
v -0.000012 0.284241 0.000031
v 3.219092 9.822741 0.000257
v 3.230894 9.990840 0.000258
v 2.984810 9.990840 1.236641
v 2.974010 9.822741 1.232140
v 2.276140 9.822741 2.276391
v 2.284437 9.990840 2.284692
v 1.231688 9.822741 2.974118
v 1.236182 9.990840 2.985019
v -0.000238 9.990840 3.230833
v -0.000232 9.822741 3.219032
v -1.232117 9.822741 2.973947
v -1.236618 9.990840 2.984847
v -2.284765 9.990840 2.284374
v -2.276361 9.822741 2.276074
v -2.984995 9.990840 1.236225
v -2.974093 9.822741 1.231726
v -3.230804 9.990840 -0.000192
v -3.219110 9.822741 -0.000191
v -2.984822 9.990840 -1.236575
v -2.973920 9.822742 -1.232074
v -2.276045 9.822742 -2.276326
v -2.284449 9.990840 -2.284726
v -1.231700 9.822742 -2.974053
v -1.236200 9.990840 -2.984953
v 0.000215 9.822742 -3.219067
v 0.000215 9.990840 -3.230867
v 1.236600 9.990840 -2.984781
v 1.232105 9.822742 -2.973881
v 2.284753 9.990840 -2.284408
v 2.276349 9.822742 -2.276009
v 2.974081 9.822742 -1.231660
v 2.985078 9.990840 -1.236159
v -1.632410 0.061841 -0.000083
v -2.525806 -0.061859 -0.000145
v -2.333534 -0.061859 -0.966731
v -1.508057 0.061841 -0.624774
v 2.525795 -0.061759 0.000207
v 2.568591 0.547441 0.000210
v 2.373028 0.547440 0.983097
v 2.333528 -0.061860 0.966794
v 1.816165 0.547440 1.816458
v 1.785868 -0.061860 1.786155
v 0.966430 -0.061860 2.333699
v 0.982833 0.547440 2.373100
v -0.000191 0.547440 2.568532
v -0.000185 -0.061860 2.525831
v -0.983071 0.547440 2.372963
v -0.966769 -0.061860 2.333564
v -1.786131 -0.061860 1.785907
v -1.816332 0.547440 1.816205
v -2.373075 0.547440 0.982766
v -2.333671 -0.061860 0.966468
v -2.568603 0.547441 -0.000148
v -2.372938 0.547441 -0.983134
v -1.816082 0.547441 -1.816395
v -1.785880 -0.061859 -1.786193
v -0.982744 0.547441 -2.373137
v -0.966442 -0.061859 -2.333636
v 0.000167 -0.061859 -2.525869
v 0.000167 0.547441 -2.568669
v 0.966758 -0.061859 -2.333501
v 0.983161 0.547441 -2.373000
v 1.816416 0.547441 -1.816142
v 1.786119 -0.061759 -1.785944
v 2.333665 -0.061759 -0.966406
v 2.373165 0.547441 -0.982703
v 1.632392 0.061841 0.000145
v 1.508051 0.061841 0.624736
v 0.842470 0.284241 0.348990
v 0.911891 0.284241 0.000095
v 0.000101 0.061841 -1.632369
v -0.624603 0.061841 -1.508212
v -0.000125 0.061840 1.632331
v 0.624591 0.061840 1.508174
v 1.508141 0.061841 -0.624564
v 1.154274 0.061841 -1.154188
v -1.508147 0.061841 0.624526
v -1.154381 0.061840 1.154151
v -1.154220 0.061841 -1.154349
v 1.154113 0.061840 1.154311
v 0.624800 0.061841 -1.508125
v -0.624812 0.061840 1.508088
v 2.470118 2.047841 1.023404
v 2.673793 2.047841 0.000218
v 1.890463 2.047841 1.890763
v 1.023018 2.047840 2.470303
v -0.000197 2.047840 2.673731
v -1.023382 2.047840 2.470160
v -1.890743 2.047841 1.890500
v -2.470380 2.047841 1.023060
v -2.673805 2.047841 -0.000155
v -2.470237 2.047841 -1.023440
v -1.890582 2.047841 -1.890800
v -1.023036 2.047841 -2.470340
v 0.000173 2.047841 -2.673769
v 1.023364 2.047841 -2.470197
v 1.890725 2.047841 -1.890537
v 2.470261 2.047841 -1.023096
v 3.174096 9.180740 0.000254
v 2.932310 9.180740 1.214837
v 2.244234 9.180740 2.244589
v 1.214385 9.180740 2.932518
v -0.000232 9.180740 3.174032
v -1.214910 9.180740 2.932348
v -2.244562 9.180740 2.244277
v -2.932489 9.180740 1.214428
v -3.174007 9.180740 -0.000188
v -2.932322 9.180741 -1.214871
v -2.244252 9.180741 -2.244524
v -1.214504 9.180741 -2.932552
v 0.000209 9.180741 -3.173967
v 1.214790 9.180741 -2.932383
v 2.244544 9.180741 -2.244211
v 2.932477 9.180741 -1.214463
v -2.193546 9.990840 -2.193820
v -1.187003 9.990840 -2.866250
v 2.193546 9.990840 2.193786
v 1.186997 9.990840 2.866215
v 2.193850 9.990840 -2.193514
v 1.187396 9.990840 -2.866085
v -1.187402 9.990840 2.866050
v -2.193850 9.990840 2.193480
v -2.866119 9.990840 -1.187367
v -3.102314 9.990840 -0.000183
v 0.000203 9.990840 -3.102367
v -0.000226 9.990840 3.102333
v 2.866173 9.990840 -1.186968
v -2.866286 9.990840 1.187033
v 2.866006 9.990840 1.187433
v 3.102291 9.990840 0.000249
v -0.970638 1.751141 -2.343736
v -1.793683 1.751141 -1.793893
v -1.745087 0.749641 -1.745390
v -0.944346 0.749641 -2.280334
v -2.468014 0.749641 -0.000140
v -2.280140 0.749641 -0.944627
v -2.343637 1.751141 -0.970932
v -2.536803 1.751140 -0.000145
v -2.343774 1.751140 0.970668
v -1.793933 1.751140 1.793706
v -1.745331 0.749640 1.745110
v -2.280271 0.749640 0.944373
v -0.970966 1.751140 2.343564
v -0.000185 1.751140 2.536831
v -0.000185 0.749640 2.468031
v -0.944662 0.749640 2.280165
v 2.536792 1.751140 0.000208
v 2.343762 1.751141 -0.970605
v 2.280259 0.749641 -0.944310
v 2.468091 0.749641 0.000203
v 0.944334 0.749640 2.280297
v 0.970632 1.751140 2.343699
v 1.793665 1.751140 1.793956
v 1.745075 0.749640 1.745353
v 0.970960 1.751141 -2.343601
v 0.944650 0.749641 -2.280203
v 1.745319 0.749641 -1.745147
v 1.793915 1.751141 -1.793643
v 2.280128 0.749640 0.944590
v 2.343625 1.751140 0.970994
v 0.000167 1.751141 -2.536868
v 0.000161 0.749641 -2.468069
v -2.185953 9.835841 -2.186319
v -1.182902 9.835841 -2.856450
v -2.856225 9.835841 -1.183366
v -3.091705 9.835840 -0.000183
v -2.186257 9.835840 2.185981
v -2.856392 9.835840 1.182934
v -0.000226 9.835840 3.091632
v -1.183301 9.835840 2.856251
v 3.091592 9.835840 0.000248
v 2.856374 9.835841 -1.182968
v 2.185941 9.835840 2.186285
v 1.182896 9.835840 2.856415
v 1.183295 9.835841 -2.856285
v 2.186245 9.835841 -2.186015
v 2.856207 9.835840 1.183332
v 0.000203 9.835841 -3.091667
v -2.136761 8.821640 -2.137116
v -1.156312 8.821640 -2.792148
v -3.022003 8.821639 -0.000178
v -2.791923 8.821640 -1.156662
v -2.137059 8.821639 2.136784
v -2.792084 8.821639 1.156238
v -0.000221 8.821639 3.022032
v -1.156700 8.821639 2.791952
v 2.792072 8.821640 -1.156273
v 3.022093 8.821639 0.000243
v 2.136743 8.821639 2.137081
v 1.156300 8.821639 2.792113
v 2.137041 8.821640 -2.136818
v 1.156688 8.821640 -2.791987
v 2.791911 8.821639 1.156627
v 0.000203 8.821640 -3.022067
v -2.059144 0.749641 -0.853112
v -1.575893 0.749641 -1.576178
v -2.059263 0.749640 0.852788
v -2.228808 0.749641 -0.000124
v -0.853050 0.749640 2.059072
v -1.576114 0.749640 1.575922
v 0.852847 0.749640 2.059191
v -0.000167 0.749640 2.228831
v 2.059251 0.749641 -0.852825
v 1.576203 0.749641 -1.575959
v 2.059132 0.749640 0.853075
v 1.575983 0.749640 1.576141
v 0.000143 0.749641 -2.228868
v 0.853133 0.749641 -2.059109
v -0.852764 0.749641 -2.059228
v 2.228892 0.749641 0.000187
v -0.000012 0.749641 0.000031
v -0.348949 0.284241 -0.842593
v -0.644761 0.284241 -0.644814
v -0.842482 0.284241 -0.349027
v -0.911909 0.284241 -0.000032
v -0.842530 0.284241 0.348873
v -0.348967 0.284240 0.842507
v -0.644851 0.284241 0.644786
v 0.348932 0.284240 0.842556
v -0.000072 0.284240 0.911931
v 0.842518 0.284241 -0.348910
v 0.644839 0.284241 -0.644724
v 0.644749 0.284241 0.644876
vt 0.000000 0.000000
vn 0.000000 -0.985900 0.167300
vn -0.064000 -0.985900 0.154500
vn 0.000000 -1.000000 0.000000
vn 0.997500 -0.070000 0.000100
vn 0.768700 0.639500 0.000000
vn 0.710100 0.639700 0.294200
vn 0.921600 -0.069800 0.381800
vn 0.705300 -0.069900 0.705400
vn 0.543500 0.639600 0.543500
vn 0.381700 -0.069900 0.921600
vn 0.294100 0.639600 0.710200
vn -0.000000 0.639500 0.768700
vn -0.000100 -0.070000 0.997500
vn -0.381800 -0.069900 0.921600
vn -0.294200 0.639500 0.710200
vn -0.543700 0.639500 0.543500
vn -0.705400 -0.070000 0.705300
vn -0.710200 0.639600 0.294100
vn -0.921600 -0.069900 0.381700
vn -0.768600 0.639600 -0.000000
vn -0.997500 -0.069900 -0.000100
vn -0.710200 0.639500 -0.294200
vn -0.921600 -0.069900 -0.381800
vn -0.705300 -0.070000 -0.705400
vn -0.543600 0.639400 -0.543700
vn -0.381700 -0.070000 -0.921600
vn -0.294100 0.639500 -0.710300
vn 0.000100 -0.069900 -0.997500
vn 0.000000 0.639500 -0.768800
vn 0.294200 0.639500 -0.710200
vn 0.381800 -0.070000 -0.921600
vn 0.543700 0.639400 -0.543600
vn 0.705400 -0.070100 -0.705300
vn 0.921600 -0.070100 -0.381700
vn 0.710300 0.639400 -0.294100
vn 0.207100 -0.978300 0.000000
vn -0.679200 -0.734000 -0.000000
vn -0.627500 -0.733900 -0.259900
vn 0.191300 -0.978300 0.079300
vn 0.679200 -0.734000 0.000000
vn 0.997500 -0.069900 0.000100
vn 0.921600 -0.069900 0.381800
vn 0.627400 -0.734000 0.259900
vn 0.480100 -0.734000 0.480200
vn 0.259800 -0.733900 0.627500
vn -0.000100 -0.069900 0.997500
vn -0.000000 -0.733900 0.679200
vn -0.259900 -0.733900 0.627500
vn -0.480300 -0.734000 0.480200
vn -0.705400 -0.069900 0.705300
vn -0.627500 -0.733900 0.259900
vn -0.705300 -0.069900 -0.705400
vn -0.480200 -0.734000 -0.480300
vn -0.381700 -0.069900 -0.921600
vn -0.259900 -0.734000 -0.627500
vn 0.000000 -0.734000 -0.679100
vn 0.260000 -0.734000 -0.627400
vn 0.381800 -0.069900 -0.921600
vn 0.705400 -0.069900 -0.705300
vn 0.480300 -0.733900 -0.480200
vn 0.627500 -0.733900 -0.259800
vn 0.921600 -0.069900 -0.381600
vn -0.207000 -0.978300 -0.000000
vn -0.191300 -0.978300 -0.079300
vn -0.154500 -0.985900 -0.064000
vn -0.167200 -0.985900 0.000000
vn 0.000000 -0.978300 0.207100
vn 0.079200 -0.978300 0.191300
vn 0.000000 -0.978300 -0.207100
vn -0.079200 -0.978300 -0.191300
vn -0.191300 -0.978300 0.079200
vn -0.146400 -0.978300 0.146400
vn 0.191300 -0.978300 -0.079200
vn 0.146400 -0.978300 -0.146400
vn 0.146400 -0.978300 0.146400
vn -0.146400 -0.978300 -0.146400
vn -0.079200 -0.978300 0.191300
vn 0.079300 -0.978300 -0.191300
vn 0.381600 -0.069900 0.921600
vn -0.997500 -0.069900 -0.000000
vn 0.921600 -0.069900 -0.381700
vn 0.921600 -0.070000 0.381800
vn 0.705300 -0.070000 0.705400
vn -0.997500 -0.070000 -0.000100
vn 0.446400 0.775500 0.446400
vn 0.241600 0.775400 0.583300
vn -0.446400 0.775500 -0.446400
vn -0.241600 0.775400 -0.583300
vn -0.446500 0.775500 0.446400
vn -0.241700 0.775400 0.583300
vn 0.241700 0.775400 -0.583300
vn 0.446500 0.775500 -0.446400
vn 0.583300 0.775500 0.241600
vn 0.631400 0.775400 0.000000
vn -0.000000 0.775500 0.631300
vn 0.000000 0.775500 -0.631300
vn -0.583400 0.775400 0.241600
vn 0.583200 0.775500 -0.241600
vn -0.583300 0.775500 -0.241600
vn -0.631300 0.775500 -0.000000
vn 0.381700 0.068400 0.921700
vn 0.705400 0.068400 0.705500
vn 0.511300 0.690700 0.511300
vn 0.276700 0.690700 0.668100
vn 0.723100 0.690800 0.000000
vn 0.668000 0.690700 0.276700
vn 0.921700 0.068500 0.381800
vn 0.997700 0.068500 0.000100
vn 0.921700 0.068500 -0.381700
vn 0.705500 0.068500 -0.705400
vn 0.511300 0.690700 -0.511300
vn 0.668100 0.690700 -0.276700
vn 0.381800 0.068500 -0.921700
vn 0.000100 0.068500 -0.997700
vn 0.000000 0.690700 -0.723100
vn 0.276700 0.690700 -0.668100
vn -0.997700 0.068500 -0.000100
vn -0.921700 0.068500 0.381700
vn -0.668100 0.690700 0.276700
vn -0.723100 0.690700 -0.000000
vn -0.276700 0.690700 -0.668100
vn -0.381700 0.068500 -0.921700
vn -0.705400 0.068500 -0.705500
vn -0.511300 0.690700 -0.511300
vn -0.381800 0.068400 0.921700
vn -0.276700 0.690700 0.668100
vn -0.511400 0.690700 0.511300
vn -0.705500 0.068400 0.705400
vn -0.668000 0.690800 -0.276700
vn -0.921700 0.068500 -0.381800
vn -0.000100 0.068500 0.997700
vn -0.000000 0.690700 0.723100
vn 0.705400 0.068500 0.705500
vn 0.381700 0.068500 0.921700
vn 0.921700 0.068500 0.381900
vn 0.997600 0.068500 0.000100
vn 0.921700 0.068600 -0.381700
vn 0.000100 0.068500 -0.997600
vn -0.381800 0.068500 0.921700
vn -0.705500 0.068500 0.705400
vn -0.000100 0.068500 0.997600
vn -0.997700 0.068400 -0.000100
vn 0.000000 1.000000 0.000000
vn 0.064000 -0.985900 0.154500
vn 0.118300 -0.985900 0.118200
vn 0.154500 -0.985900 0.064000
vn 0.167200 -0.985900 0.000000
vn 0.154500 -0.985900 -0.064000
vn 0.064000 -0.985900 -0.154500
vn 0.118300 -0.985900 -0.118300
vn -0.064000 -0.985900 -0.154500
vn 0.000000 -0.985900 -0.167300
vn -0.154500 -0.985900 0.064000
vn -0.118300 -0.985900 0.118200
vn -0.118300 -0.985900 -0.118300
usemtl jug_glass_2
s 1
f 1/1/1 2/1/2 3/1/3
f 4/1/4 5/1/5 6/1/6 7/1/7
f 8/1/8 7/1/7 6/1/6 9/1/9
f 10/1/10 8/1/8 9/1/9 11/1/11
f 11/1/11 12/1/12 13/1/13 10/1/10
f 14/1/14 13/1/13 12/1/12 15/1/15
f 16/1/16 17/1/17 14/1/14 15/1/15
f 17/1/17 16/1/16 18/1/18 19/1/19
f 20/1/20 21/1/21 19/1/19 18/1/18
f 22/1/22 23/1/23 21/1/21 20/1/20
f 24/1/24 23/1/23 22/1/22 25/1/25
f 26/1/26 24/1/24 25/1/25 27/1/27
f 28/1/28 26/1/26 27/1/27 29/1/29
f 29/1/29 30/1/30 31/1/31 28/1/28
f 31/1/31 30/1/30 32/1/32 33/1/33
f 5/1/5 4/1/4 34/1/34 35/1/35
f 33/1/33 32/1/32 35/1/35 34/1/34
f 36/1/36 37/1/37 38/1/38 39/1/39
f 40/1/40 41/1/41 42/1/42 43/1/43
f 43/1/43 42/1/42 44/1/8 45/1/44
f 46/1/45 45/1/44 44/1/8 47/1/10
f 48/1/46 49/1/47 46/1/45 47/1/10
f 48/1/46 50/1/14 51/1/48 49/1/47
f 52/1/49 51/1/48 50/1/14 53/1/50
f 53/1/50 54/1/19 55/1/51 52/1/49
f 55/1/51 54/1/19 56/1/21 37/1/37
f 38/1/38 37/1/37 56/1/21 57/1/23
f 57/1/23 58/1/52 59/1/53 38/1/38
f 59/1/53 58/1/52 60/1/54 61/1/55
f 62/1/56 61/1/55 60/1/54 63/1/28
f 64/1/57 62/1/56 63/1/28 65/1/58
f 64/1/57 65/1/58 66/1/59 67/1/60
f 68/1/61 69/1/62 41/1/41 40/1/40
f 69/1/62 68/1/61 67/1/60 66/1/59
f 70/1/63 71/1/64 72/1/65 73/1/66
f 61/1/55 62/1/56 74/1/67 75/1/68
f 76/1/69 77/1/70 46/1/45 49/1/47
f 68/1/61 78/1/71 79/1/72 67/1/60
f 52/1/49 55/1/51 80/1/73 81/1/74
f 38/1/38 59/1/53 82/1/75 39/1/39
f 43/1/43 45/1/44 83/1/76 71/1/64
f 74/1/67 62/1/56 64/1/57 84/1/77
f 51/1/48 85/1/78 76/1/69 49/1/47
f 40/1/40 70/1/63 78/1/71 68/1/61
f 70/1/63 40/1/40 43/1/43 71/1/64
f 37/1/37 36/1/36 80/1/73 55/1/51
f 61/1/55 75/1/68 82/1/75 59/1/53
f 83/1/76 45/1/44 46/1/45 77/1/70
f 79/1/72 84/1/77 64/1/57 67/1/60
f 51/1/48 52/1/49 81/1/74 85/1/78
f 86/1/42 42/1/42 41/1/41 87/1/41
f 86/1/42 88/1/8 44/1/8 42/1/42
f 47/1/10 44/1/8 88/1/8 89/1/79
f 90/1/46 48/1/46 47/1/10 89/1/79
f 91/1/14 50/1/14 48/1/46 90/1/46
f 91/1/14 92/1/50 53/1/50 50/1/14
f 53/1/50 92/1/50 93/1/19 54/1/19
f 56/1/21 54/1/19 93/1/19 94/1/80
f 94/1/80 95/1/23 57/1/23 56/1/21
f 58/1/52 57/1/23 95/1/23 96/1/52
f 58/1/52 96/1/52 97/1/54 60/1/54
f 98/1/28 63/1/28 60/1/54 97/1/54
f 63/1/28 98/1/28 99/1/58 65/1/58
f 100/1/59 66/1/59 65/1/58 99/1/58
f 87/1/41 41/1/41 69/1/62 101/1/81
f 66/1/59 100/1/59 101/1/81 69/1/62
f 102/1/41 4/1/4 7/1/7 103/1/82
f 8/1/8 104/1/83 103/1/82 7/1/7
f 10/1/10 105/1/79 104/1/83 8/1/8
f 106/1/46 105/1/79 10/1/10 13/1/13
f 14/1/14 107/1/14 106/1/46 13/1/13
f 17/1/17 108/1/50 107/1/14 14/1/14
f 19/1/19 109/1/19 108/1/50 17/1/17
f 109/1/19 19/1/19 21/1/21 110/1/84
f 23/1/23 111/1/23 110/1/84 21/1/21
f 112/1/52 111/1/23 23/1/23 24/1/24
f 26/1/26 113/1/54 112/1/52 24/1/24
f 114/1/28 113/1/54 26/1/26 28/1/28
f 31/1/31 115/1/58 114/1/28 28/1/28
f 115/1/58 31/1/31 33/1/33 116/1/59
f 102/1/41 117/1/81 34/1/34 4/1/4
f 34/1/34 117/1/81 116/1/59 33/1/33
f 25/1/25 118/1/85 119/1/86 27/1/27
f 120/1/87 121/1/88 11/1/11 9/1/9
f 122/1/89 32/1/32 30/1/30 123/1/90
f 124/1/91 125/1/92 16/1/16 15/1/15
f 126/1/93 22/1/22 20/1/20 127/1/94
f 29/1/29 27/1/27 119/1/86 128/1/95
f 121/1/88 129/1/96 12/1/12 11/1/11
f 35/1/35 32/1/32 122/1/89 130/1/97
f 131/1/98 18/1/18 16/1/16 125/1/92
f 118/1/85 25/1/25 22/1/22 126/1/93
f 6/1/6 132/1/99 120/1/87 9/1/9
f 30/1/30 29/1/29 128/1/95 123/1/90
f 15/1/15 12/1/12 129/1/96 124/1/91
f 35/1/35 130/1/97 133/1/100 5/1/5
f 5/1/5 133/1/100 132/1/99 6/1/6
f 20/1/20 18/1/18 131/1/98 127/1/94
f 134/1/101 135/1/102 136/1/103 137/1/104
f 138/1/105 139/1/106 140/1/107 141/1/108
f 142/1/109 143/1/110 144/1/111 145/1/112
f 146/1/113 147/1/114 148/1/115 149/1/116
f 150/1/117 151/1/118 152/1/119 153/1/120
f 154/1/121 155/1/122 156/1/123 157/1/124
f 158/1/125 159/1/126 160/1/127 161/1/128
f 150/1/117 153/1/120 162/1/129 163/1/130
f 164/1/131 134/1/101 137/1/104 165/1/132
f 140/1/107 139/1/106 136/1/103 135/1/102
f 142/1/109 145/1/112 138/1/105 141/1/108
f 149/1/116 144/1/111 143/1/110 146/1/113
f 154/1/121 148/1/115 147/1/114 155/1/122
f 160/1/127 152/1/119 151/1/118 161/1/128
f 163/1/130 162/1/129 157/1/124 156/1/123
f 158/1/125 164/1/131 165/1/132 159/1/126
f 166/1/133 167/1/134 119/1/86 118/1/85
f 168/1/135 126/1/93 127/1/94 169/1/136
f 170/1/110 171/1/137 131/1/98 125/1/92
f 172/1/138 173/1/113 124/1/91 129/1/96
f 174/1/117 133/1/100 130/1/97 175/1/118
f 120/1/87 176/1/123 177/1/122 121/1/88
f 123/1/90 178/1/139 179/1/140 122/1/89
f 174/1/117 180/1/130 132/1/99 133/1/100
f 128/1/95 119/1/86 167/1/134 181/1/141
f 118/1/85 126/1/93 168/1/135 166/1/133
f 127/1/94 131/1/98 171/1/137 169/1/136
f 125/1/92 124/1/91 173/1/113 170/1/110
f 172/1/138 129/1/96 121/1/88 177/1/122
f 175/1/118 130/1/97 122/1/89 179/1/140
f 176/1/123 120/1/87 132/1/99 180/1/130
f 181/1/141 178/1/139 123/1/90 128/1/95
f 182/1/133 183/1/134 167/1/134 166/1/133
f 168/1/135 169/1/136 184/1/108 185/1/107
f 171/1/137 170/1/110 186/1/110 187/1/109
f 172/1/138 188/1/114 189/1/113 173/1/113
f 174/1/117 175/1/118 190/1/118 191/1/142
f 177/1/122 176/1/123 192/1/123 193/1/122
f 194/1/140 179/1/140 178/1/139 195/1/139
f 180/1/130 174/1/117 191/1/142 196/1/130
f 183/1/134 197/1/131 181/1/141 167/1/134
f 166/1/133 168/1/135 185/1/107 182/1/133
f 169/1/136 171/1/137 187/1/109 184/1/108
f 173/1/113 189/1/113 186/1/110 170/1/110
f 177/1/122 193/1/122 188/1/114 172/1/138
f 194/1/140 190/1/118 175/1/118 179/1/140
f 192/1/123 176/1/123 180/1/130 196/1/130
f 195/1/139 178/1/139 181/1/141 197/1/131
f 86/1/42 87/1/41 102/1/41 103/1/82
f 104/1/83 88/1/8 86/1/42 103/1/82
f 88/1/8 104/1/83 105/1/79 89/1/79
f 106/1/46 90/1/46 89/1/79 105/1/79
f 91/1/14 90/1/46 106/1/46 107/1/14
f 91/1/14 107/1/14 108/1/50 92/1/50
f 92/1/50 108/1/50 109/1/19 93/1/19
f 110/1/84 94/1/80 93/1/19 109/1/19
f 95/1/23 94/1/80 110/1/84 111/1/23
f 95/1/23 111/1/23 112/1/52 96/1/52
f 96/1/52 112/1/52 113/1/54 97/1/54
f 97/1/54 113/1/54 114/1/28 98/1/28
f 99/1/58 98/1/28 114/1/28 115/1/58
f 100/1/59 99/1/58 115/1/58 116/1/59
f 102/1/41 87/1/41 101/1/81 117/1/81
f 101/1/81 100/1/59 116/1/59 117/1/81
f 139/1/106 198/1/143 199/1/143 136/1/103
f 200/1/143 201/1/143 138/1/105 145/1/112
f 202/1/143 203/1/143 144/1/111 149/1/116
f 204/1/143 205/1/143 148/1/115 154/1/121
f 206/1/143 152/1/119 160/1/127 207/1/143
f 208/1/143 209/1/143 157/1/124 162/1/129
f 210/1/143 211/1/143 159/1/126 165/1/132
f 137/1/104 136/1/103 199/1/143 212/1/143
f 198/1/143 139/1/106 138/1/105 201/1/143
f 144/1/111 203/1/143 200/1/143 145/1/112
f 148/1/115 205/1/143 202/1/143 149/1/116
f 206/1/143 213/1/143 153/1/120 152/1/119
f 209/1/143 204/1/143 154/1/121 157/1/124
f 160/1/127 159/1/126 211/1/143 207/1/143
f 162/1/129 153/1/120 213/1/143 208/1/143
f 165/1/132 137/1/104 212/1/143 210/1/143
f 195/1/139 197/1/131 164/1/131 158/1/125
f 192/1/123 196/1/130 163/1/130 156/1/123
f 190/1/118 194/1/140 161/1/128 151/1/118
f 193/1/122 155/1/122 147/1/114 188/1/114
f 143/1/110 186/1/110 189/1/113 146/1/113
f 142/1/109 141/1/108 184/1/108 187/1/109
f 135/1/102 182/1/133 185/1/107 140/1/107
f 183/1/134 134/1/101 164/1/131 197/1/131
f 191/1/142 150/1/117 163/1/130 196/1/130
f 194/1/140 195/1/139 158/1/125 161/1/128
f 192/1/123 156/1/123 155/1/122 193/1/122
f 150/1/117 191/1/142 190/1/118 151/1/118
f 189/1/113 188/1/114 147/1/114 146/1/113
f 187/1/109 186/1/110 143/1/110 142/1/109
f 185/1/107 184/1/108 141/1/108 140/1/107
f 182/1/133 135/1/102 134/1/101 183/1/134
f 204/1/143 209/1/143 214/1/143
f 207/1/143 211/1/143 214/1/143
f 208/1/143 213/1/143 214/1/143
f 210/1/143 212/1/143 214/1/143
f 199/1/143 198/1/143 214/1/143
f 201/1/143 200/1/143 214/1/143
f 203/1/143 202/1/143 214/1/143
f 205/1/143 204/1/143 214/1/143
f 206/1/143 207/1/143 214/1/143
f 209/1/143 208/1/143 214/1/143
f 211/1/143 210/1/143 214/1/143
f 212/1/143 199/1/143 214/1/143
f 198/1/143 201/1/143 214/1/143
f 200/1/143 203/1/143 214/1/143
f 202/1/143 205/1/143 214/1/143
f 213/1/143 206/1/143 214/1/143
f 74/1/67 1/1/1 215/1/144 75/1/68
f 82/1/75 216/1/145 217/1/146 39/1/39
f 80/1/73 36/1/36 218/1/147 219/1/148
f 220/1/149 85/1/78 81/1/74 221/1/150
f 222/1/151 77/1/70 76/1/69 223/1/152
f 79/1/72 78/1/71 224/1/153 225/1/154
f 226/1/155 72/1/65 71/1/64 83/1/76
f 2/1/2 1/1/1 74/1/67 84/1/77
f 75/1/68 215/1/144 216/1/145 82/1/75
f 218/1/147 36/1/36 39/1/39 217/1/146
f 221/1/150 81/1/74 80/1/73 219/1/148
f 220/1/149 223/1/152 76/1/69 85/1/78
f 224/1/153 78/1/71 70/1/63 73/1/66
f 222/1/151 226/1/155 83/1/76 77/1/70
f 225/1/154 2/1/2 84/1/77 79/1/72
f 2/1/2 225/1/154 3/1/3
f 225/1/154 224/1/153 3/1/3
f 224/1/153 73/1/66 3/1/3
f 73/1/66 72/1/65 3/1/3
f 72/1/65 226/1/155 3/1/3
f 226/1/155 222/1/151 3/1/3
f 222/1/151 223/1/152 3/1/3
f 223/1/152 220/1/149 3/1/3
f 220/1/149 221/1/150 3/1/3
f 221/1/150 219/1/148 3/1/3
f 219/1/148 218/1/147 3/1/3
f 218/1/147 217/1/146 3/1/3
f 217/1/146 216/1/145 3/1/3
f 216/1/145 215/1/144 3/1/3
f 215/1/144 1/1/1 3/1/3
