# Blender v2.75 (sub 0) OBJ File: 'Kitchen collection_blend.blend'
# www.blender.org
mtllib glass_2.mtl
o glass_2
v -1.524734 8.446600 -3.583753
v -1.524734 8.202200 -3.583753
v -2.780098 8.202200 -2.727440
v -2.780098 8.446600 -2.727440
v -0.037217 8.446600 -3.894449
v -0.037217 8.202200 -3.894449
v 1.455963 8.202200 -3.612245
v 1.455963 8.446600 -3.612245
v 2.727509 8.446600 -2.780057
v 2.727509 8.202200 -2.780057
v 3.583717 8.202200 -1.524697
v 3.583717 8.446600 -1.524697
v 3.894418 8.446600 -0.037176
v 3.894418 8.202200 -0.037176
v 3.612214 8.446600 1.456005
v 3.612214 8.202200 1.456005
v 2.780122 8.446600 2.727447
v 2.780122 8.202200 2.727446
v 1.524758 8.446600 3.583759
v 1.524758 8.202200 3.583759
v 0.037247 8.202199 3.894456
v 0.037247 8.446599 3.894456
v -1.455939 8.202200 3.612252
v -1.455939 8.446600 3.612252
v -2.727479 8.446600 2.780063
v -2.727479 8.202200 2.780063
v -3.583795 8.446600 1.524704
v -3.583795 8.202200 1.524704
v -3.894383 8.446600 0.037182
v -3.894383 8.202200 0.037182
v -1.307613 8.446600 3.244262
v -2.449560 8.446600 2.496883
v -3.612185 8.202200 -1.455998
v -3.612185 8.446600 -1.455998
v 3.583717 0.362400 -1.524698
v 3.583717 0.000000 -1.524698
v 2.727509 0.000000 -2.780058
v 2.727509 0.362400 -2.780058
v -1.385462 0.000001 -3.256644
v -2.526313 0.000000 -2.478524
v -2.780098 0.000000 -2.727442
v -1.524734 0.000001 -3.583754
v -2.780098 0.362400 -2.727442
v -3.612185 0.000000 -1.455999
v -3.612185 0.362400 -1.455999
v -1.524734 0.362401 -3.583754
v 2.780122 0.362400 2.727445
v 2.780122 -0.000000 2.727445
v 3.612214 -0.000000 1.456004
v 3.612214 0.362400 1.456004
v -1.455939 0.362399 3.612251
v -1.455939 -0.000001 3.612251
v 0.037247 -0.000001 3.894454
v 0.037247 0.362399 3.894454
v -0.037217 0.000001 -3.894450
v -0.037217 0.362401 -3.894450
v 1.455963 0.362401 -3.612246
v 1.455963 0.000001 -3.612247
v -3.583795 0.362400 1.524702
v -3.894383 0.362400 0.037181
v -3.894383 -0.000000 0.037181
v -3.583795 -0.000000 1.524702
v 3.894418 0.000000 -0.037177
v 3.894418 0.362400 -0.037177
v 1.524758 0.362399 3.583758
v 1.524758 -0.000001 3.583758
v -2.727479 -0.000000 2.780061
v -2.727479 0.362400 2.780061
v 0.033474 1.846099 3.497654
v 0.033474 1.610700 3.497654
v -1.307613 1.610700 3.244262
v -1.307613 1.846099 3.244262
v 1.307642 8.446600 -3.244256
v 2.449584 8.446600 -2.496876
v -3.497684 8.446600 0.033410
v -3.244191 8.446600 -1.307673
v 3.244221 8.446600 1.307679
v 3.497720 8.446600 -0.033403
v 0.033474 8.446600 3.497656
v 1.369393 8.446600 3.218649
v -1.369363 8.446600 -3.218642
v -0.033444 8.446600 -3.497649
v -3.218681 8.446600 1.369329
v 3.218710 8.446600 -1.369422
v -2.496809 8.446600 -2.449620
v 2.496839 8.446600 2.449628
v 1.252812 1.610700 2.944739
v 0.030595 1.610700 3.200054
v 1.369393 1.610700 3.218648
v 1.369393 1.846099 3.218648
v 2.496839 1.846100 2.449626
v 2.496839 1.610700 2.449626
v 3.244221 1.846100 1.307678
v 3.497720 1.846100 -0.033404
v 3.497720 1.610700 -0.033404
v 3.244221 1.610700 1.307678
v 3.218710 1.610700 -1.369424
v 3.218710 1.846100 -1.369424
v 2.449584 1.846100 -2.496877
v 2.449584 1.610700 -2.496877
v -3.244191 1.846100 -1.307674
v -3.244191 1.610700 -1.307674
v -2.496809 1.610700 -2.449622
v -2.496809 1.846100 -2.449622
v -0.033444 1.610701 -3.497650
v 1.307642 1.610701 -3.244256
v 1.307642 1.846101 -3.244256
v -0.033444 1.846101 -3.497650
v -3.218681 1.846100 1.369328
v -3.218681 1.610700 1.369328
v -3.497684 1.610700 0.033408
v -3.497684 1.846100 0.033408
v -1.369363 1.610701 -3.218643
v -1.369363 1.846101 -3.218643
v -2.449560 1.846100 2.496882
v -2.449560 1.610700 2.496882
v -2.780098 7.207501 -2.727440
v -1.524734 7.207501 -3.583753
v -0.037217 7.207501 -3.894449
v 1.455963 7.207501 -3.612246
v 2.727509 7.207501 -2.780057
v 3.583717 7.207501 -1.524697
v 3.894418 7.207500 -0.037176
v 3.612214 7.207500 1.456005
v 2.780122 7.207500 2.727446
v 1.524758 7.207500 3.583759
v 0.037247 7.207500 3.894456
v -1.455939 7.207500 3.612252
v -2.727479 7.207500 2.780063
v -3.583795 7.207500 1.524704
v -3.894383 7.207500 0.037182
v -3.612185 7.207501 -1.455998
v 2.727509 1.375301 -2.780058
v 3.583717 1.375300 -1.524698
v -2.780098 1.375301 -2.727442
v -3.612185 1.375300 -1.455999
v -1.524734 1.375301 -3.583754
v 3.612214 1.375300 1.456004
v 2.780122 1.375300 2.727445
v 0.037247 1.375299 3.894454
v -1.455939 1.375299 3.612251
v -0.037217 1.375301 -3.894450
v 1.455963 1.375301 -3.612246
v -3.583795 1.375300 1.524703
v -3.894383 1.375300 0.037181
v 3.894418 1.375300 -0.037177
v 1.524758 1.375299 3.583758
v -2.727479 1.375300 2.780062
v -1.323014 -0.000001 3.282460
v -2.478456 -0.000000 2.526279
v 1.385486 -0.000001 3.256648
v 0.033772 -0.000001 3.538954
v 2.526343 -0.000000 2.478528
v 3.282523 -0.000000 1.323080
v 3.538918 0.000000 -0.033802
v 3.256613 0.000000 -1.385521
v 2.478492 0.000000 -2.526275
v 1.323044 0.000001 -3.282456
v -3.282487 0.000000 -1.323077
v -3.538883 -0.000000 0.033806
v -0.033844 0.000001 -3.538950
v -3.256577 -0.000000 1.385525
v -1.307613 8.202200 3.244262
v 0.033474 8.202200 3.497656
v 2.496839 8.202200 2.449628
v 1.369393 8.202200 3.218649
v 3.497720 8.202200 -0.033403
v 3.244221 8.202200 1.307679
v 2.449584 8.202200 -2.496876
v 3.218710 8.202200 -1.369422
v -2.496809 8.202200 -2.449620
v -3.244191 8.202200 -1.307673
v -0.033444 8.202200 -3.497649
v 1.307642 8.202200 -3.244256
v -3.218681 8.202200 1.369329
v -3.497684 8.202200 0.033410
v -1.369363 8.202200 -3.218642
v -2.449560 8.202200 2.496883
v -1.307613 2.654299 3.244262
v 0.033474 2.654299 3.497654
v 1.369393 2.654299 3.218648
v 2.496839 2.654299 2.449626
v 3.244221 2.654300 1.307678
v 3.497720 2.654300 -0.033404
v 3.218710 2.654300 -1.369423
v 2.449584 2.654300 -2.496877
v -2.496809 2.654300 -2.449621
v -3.244191 2.654300 -1.307673
v 1.307642 2.654300 -3.244256
v -0.033444 2.654300 -3.497650
v -3.497684 2.654300 0.033408
v -3.218681 2.654300 1.369328
v -1.369363 2.654300 -3.218643
v -2.449560 2.654299 2.496882
v 2.968127 1.610700 1.196359
v 2.284360 1.610700 2.241111
v 3.200012 1.610700 -0.030625
v 2.944803 1.610700 -1.252843
v 1.196426 1.610701 -2.968164
v 2.241176 1.610700 -2.284392
v -3.199989 1.610700 0.030529
v -2.968103 1.610700 -1.196354
v -0.030553 1.610701 -3.200050
v -1.252782 1.610701 -2.944735
v -2.944773 1.610700 1.252847
v -2.241147 1.610700 2.284396
v -1.196396 1.610700 2.968169
v -2.284330 1.610700 -2.241107
v 0.033474 7.207500 3.497655
v -1.307613 7.207500 3.244262
v 1.369393 7.207500 3.218649
v 2.496839 7.207500 2.449627
v 3.497720 7.207500 -0.033403
v 3.244221 7.207500 1.307679
v 3.218710 7.207501 -1.369423
v 2.449584 7.207501 -2.496876
v -2.496809 7.207501 -2.449621
v -3.244191 7.207501 -1.307673
v 1.307642 7.207501 -3.244256
v -0.033444 7.207501 -3.497649
v -3.497684 7.207500 0.033409
v -3.218681 7.207500 1.369329
v -1.369363 7.207501 -3.218642
v -2.449560 7.207500 2.496882
v 0.000018 1.610700 -0.000048
v 0.000018 0.000000 -0.000048
vt 0.000000 0.000000
vn -0.292100 0.665700 -0.686600
vn -0.391500 0.000000 -0.920200
vn -0.713800 0.000000 -0.700300
vn -0.532600 0.665700 -0.522600
vn -0.007100 0.665700 -0.746100
vn -0.009600 0.000000 -0.999900
vn 0.373800 0.000000 -0.927500
vn 0.278900 0.665700 -0.692100
vn 0.522600 0.665700 -0.532600
vn 0.700300 0.000000 -0.713800
vn 0.920200 0.000000 -0.391500
vn 0.686600 0.665700 -0.292100
vn 0.746100 0.665700 -0.007100
vn 0.999900 0.000000 -0.009600
vn 0.692100 0.665700 0.278900
vn 0.927500 0.000000 0.373800
vn 0.532600 0.665700 0.522600
vn 0.713800 0.000000 0.700300
vn 0.292100 0.665700 0.686600
vn 0.391500 0.000000 0.920200
vn 0.009600 0.000000 0.999900
vn 0.007100 0.665700 0.746100
vn -0.373800 0.000000 0.927500
vn -0.278900 0.665700 0.692100
vn -0.522600 0.665700 0.532600
vn -0.700300 0.000000 0.713800
vn -0.686600 0.665700 0.292100
vn -0.920200 0.000000 0.391500
vn -0.746100 0.665700 0.007100
vn -0.999900 0.000000 0.009500
vn 0.245600 0.753700 -0.609500
vn 0.460200 0.753700 -0.469100
vn -0.927500 0.000000 -0.373800
vn -0.692100 0.665700 -0.278900
vn 0.686600 -0.665700 -0.292100
vn 0.522600 -0.665700 -0.532600
vn 0.000000 -1.000000 0.000000
vn -0.532600 -0.665700 -0.522600
vn -0.292100 -0.665700 -0.686600
vn -0.692100 -0.665700 -0.278900
vn 0.532600 -0.665700 0.522600
vn 0.692100 -0.665700 0.278900
vn -0.278900 -0.665700 0.692100
vn 0.007100 -0.665700 0.746100
vn -0.007100 -0.665700 -0.746100
vn 0.278900 -0.665700 -0.692100
vn -0.746100 -0.665700 0.007100
vn -0.686600 -0.665700 0.292100
vn 0.746100 -0.665700 -0.007100
vn 0.292100 -0.665700 0.686600
vn -0.522600 -0.665700 0.532600
vn -0.245600 0.753700 0.609500
vn -0.460200 0.753700 0.469100
vn 0.657100 0.753700 -0.006300
vn 0.609500 0.753700 0.245700
vn -0.609500 0.753700 -0.245700
vn -0.657100 0.753700 0.006300
vn -0.006300 0.753700 -0.657100
vn -0.257200 0.753700 -0.604700
vn 0.257200 0.753700 0.604700
vn 0.006300 0.753700 0.657100
vn 0.604700 0.753700 -0.257200
vn -0.604700 0.753800 0.257300
vn 0.469100 0.753700 0.460200
vn -0.469100 0.753700 -0.460200
vn 0.000000 1.000000 0.000000
vn -0.927500 0.000000 -0.373900
vn -0.692100 0.665700 -0.279000
vn -0.522500 0.665700 0.532600
vn 0.927500 0.000000 0.373900
vn 0.692100 0.665700 0.279000
vn 0.999900 0.000000 -0.009500
usemtl jug_glass_2
s 1
f 1/1/1 2/1/2 3/1/3 4/1/4
f 2/1/2 1/1/1 5/1/5 6/1/6
f 7/1/7 6/1/6 5/1/5 8/1/8
f 9/1/9 10/1/10 7/1/7 8/1/8
f 11/1/11 10/1/10 9/1/9 12/1/12
f 13/1/13 14/1/14 11/1/11 12/1/12
f 15/1/15 16/1/16 14/1/14 13/1/13
f 17/1/17 18/1/18 16/1/16 15/1/15
f 19/1/19 20/1/20 18/1/18 17/1/17
f 21/1/21 20/1/20 19/1/19 22/1/22
f 23/1/23 21/1/21 22/1/22 24/1/24
f 25/1/25 26/1/26 23/1/23 24/1/24
f 26/1/26 25/1/25 27/1/27 28/1/28
f 28/1/28 27/1/27 29/1/29 30/1/30
f 31/1/31 32/1/32 25/1/25 24/1/24
f 3/1/3 33/1/33 34/1/34 4/1/4
f 29/1/29 34/1/34 33/1/33 30/1/30
f 35/1/11 36/1/35 37/1/36 38/1/10
f 39/1/37 40/1/37 41/1/38 42/1/39
f 43/1/3 41/1/38 44/1/40 45/1/33
f 41/1/38 43/1/3 46/1/2 42/1/39
f 47/1/18 48/1/41 49/1/42 50/1/16
f 51/1/23 52/1/43 53/1/44 54/1/21
f 55/1/45 56/1/6 57/1/7 58/1/46
f 59/1/28 60/1/30 61/1/47 62/1/48
f 63/1/49 36/1/35 35/1/11 64/1/14
f 47/1/18 65/1/20 66/1/50 48/1/41
f 67/1/51 52/1/43 51/1/23 68/1/26
f 58/1/46 57/1/7 38/1/10 37/1/36
f 44/1/40 61/1/47 60/1/30 45/1/33
f 50/1/16 49/1/42 63/1/49 64/1/14
f 54/1/21 53/1/44 66/1/50 65/1/20
f 46/1/2 56/1/6 55/1/45 42/1/39
f 62/1/48 67/1/51 68/1/26 59/1/28
f 69/1/6 70/1/5 71/1/8 72/1/7
f 73/1/52 74/1/53 9/1/9 8/1/8
f 34/1/34 29/1/29 75/1/54 76/1/55
f 77/1/56 15/1/15 13/1/13 78/1/57
f 79/1/58 22/1/22 19/1/19 80/1/59
f 5/1/5 1/1/1 81/1/60 82/1/61
f 27/1/27 25/1/25 32/1/32 83/1/62
f 84/1/63 12/1/12 9/1/9 74/1/53
f 85/1/64 4/1/4 34/1/34 76/1/55
f 81/1/60 1/1/1 4/1/4 85/1/64
f 86/1/65 17/1/17 15/1/15 77/1/56
f 31/1/31 24/1/24 22/1/22 79/1/58
f 8/1/8 5/1/5 82/1/61 73/1/52
f 29/1/29 27/1/27 83/1/62 75/1/54
f 84/1/63 78/1/57 13/1/13 12/1/12
f 80/1/59 19/1/19 17/1/17 86/1/65
f 87/1/66 88/1/66 70/1/5 89/1/1
f 89/1/1 90/1/2 91/1/3 92/1/4
f 93/1/67 94/1/30 95/1/29 96/1/68
f 97/1/27 98/1/28 99/1/26 100/1/69
f 101/1/70 102/1/71 103/1/17 104/1/18
f 105/1/22 106/1/24 107/1/23 108/1/21
f 109/1/11 110/1/12 111/1/13 112/1/72
f 103/1/17 113/1/19 114/1/20 104/1/18
f 115/1/10 72/1/7 71/1/8 116/1/9
f 89/1/1 70/1/5 69/1/6 90/1/2
f 96/1/68 92/1/4 91/1/3 93/1/67
f 97/1/27 95/1/29 94/1/30 98/1/28
f 100/1/69 99/1/26 107/1/23 106/1/24
f 112/1/72 111/1/13 102/1/71 101/1/70
f 113/1/19 105/1/22 108/1/21 114/1/20
f 109/1/11 115/1/10 116/1/9 110/1/12
f 117/1/3 3/1/3 2/1/2 118/1/2
f 6/1/6 119/1/6 118/1/2 2/1/2
f 6/1/6 7/1/7 120/1/7 119/1/6
f 120/1/7 7/1/7 10/1/10 121/1/10
f 122/1/11 121/1/10 10/1/10 11/1/11
f 11/1/11 14/1/14 123/1/14 122/1/11
f 14/1/14 16/1/16 124/1/16 123/1/14
f 18/1/18 125/1/18 124/1/16 16/1/16
f 126/1/20 125/1/18 18/1/18 20/1/20
f 21/1/21 127/1/21 126/1/20 20/1/20
f 127/1/21 21/1/21 23/1/23 128/1/23
f 128/1/23 23/1/23 26/1/26 129/1/26
f 28/1/28 130/1/28 129/1/26 26/1/26
f 131/1/30 130/1/28 28/1/28 30/1/30
f 3/1/3 117/1/3 132/1/33 33/1/33
f 30/1/30 33/1/33 132/1/33 131/1/30
f 38/1/10 133/1/10 134/1/11 35/1/11
f 135/1/3 43/1/3 45/1/33 136/1/33
f 135/1/3 137/1/2 46/1/2 43/1/3
f 50/1/16 138/1/16 139/1/18 47/1/18
f 140/1/21 141/1/23 51/1/23 54/1/21
f 57/1/7 56/1/6 142/1/6 143/1/7
f 59/1/28 144/1/28 145/1/30 60/1/30
f 64/1/14 35/1/11 134/1/11 146/1/14
f 47/1/18 139/1/18 147/1/20 65/1/20
f 148/1/26 68/1/26 51/1/23 141/1/23
f 38/1/10 57/1/7 143/1/7 133/1/10
f 45/1/33 60/1/30 145/1/30 136/1/33
f 146/1/14 138/1/16 50/1/16 64/1/14
f 54/1/21 65/1/20 147/1/20 140/1/21
f 142/1/6 56/1/6 46/1/2 137/1/2
f 144/1/28 59/1/28 68/1/26 148/1/26
f 149/1/37 52/1/43 67/1/51 150/1/37
f 151/1/37 66/1/50 53/1/44 152/1/37
f 49/1/42 48/1/41 153/1/37 154/1/37
f 36/1/35 63/1/49 155/1/37 156/1/37
f 58/1/46 37/1/36 157/1/37 158/1/37
f 44/1/40 159/1/37 160/1/37 61/1/47
f 39/1/37 42/1/39 55/1/45 161/1/37
f 62/1/48 162/1/37 150/1/37 67/1/51
f 52/1/43 149/1/37 152/1/37 53/1/44
f 48/1/41 66/1/50 151/1/37 153/1/37
f 63/1/49 49/1/42 154/1/37 155/1/37
f 37/1/36 36/1/35 156/1/37 157/1/37
f 40/1/37 159/1/37 44/1/40 41/1/38
f 55/1/45 58/1/46 158/1/37 161/1/37
f 62/1/48 61/1/47 160/1/37 162/1/37
f 163/1/7 31/1/31 79/1/58 164/1/6
f 80/1/59 86/1/65 165/1/3 166/1/2
f 167/1/30 168/1/67 77/1/56 78/1/57
f 169/1/26 170/1/28 84/1/63 74/1/53
f 171/1/18 85/1/64 76/1/55 172/1/70
f 173/1/21 174/1/23 73/1/52 82/1/61
f 75/1/54 83/1/62 175/1/11 176/1/72
f 85/1/64 171/1/18 177/1/20 81/1/60
f 32/1/32 31/1/31 163/1/7 178/1/10
f 79/1/58 80/1/59 166/1/2 164/1/6
f 165/1/3 86/1/65 77/1/56 168/1/67
f 167/1/30 78/1/57 84/1/63 170/1/28
f 174/1/23 169/1/26 74/1/53 73/1/52
f 172/1/70 76/1/55 75/1/54 176/1/72
f 81/1/60 177/1/20 173/1/21 82/1/61
f 178/1/10 175/1/11 83/1/62 32/1/32
f 69/1/6 72/1/7 179/1/7 180/1/6
f 181/1/2 182/1/3 91/1/3 90/1/2
f 183/1/67 184/1/30 94/1/30 93/1/67
f 185/1/28 186/1/26 99/1/26 98/1/28
f 104/1/18 187/1/18 188/1/70 101/1/70
f 107/1/23 189/1/23 190/1/21 108/1/21
f 112/1/72 191/1/72 192/1/11 109/1/11
f 187/1/18 104/1/18 114/1/20 193/1/20
f 72/1/7 115/1/10 194/1/10 179/1/7
f 181/1/2 90/1/2 69/1/6 180/1/6
f 183/1/67 93/1/67 91/1/3 182/1/3
f 185/1/28 98/1/28 94/1/30 184/1/30
f 107/1/23 99/1/26 186/1/26 189/1/23
f 191/1/72 112/1/72 101/1/70 188/1/70
f 114/1/20 108/1/21 190/1/21 193/1/20
f 194/1/10 115/1/10 109/1/11 192/1/11
f 92/1/4 96/1/68 195/1/66 196/1/66
f 197/1/66 95/1/29 97/1/27 198/1/66
f 100/1/69 106/1/24 199/1/66 200/1/66
f 102/1/71 111/1/13 201/1/66 202/1/66
f 203/1/66 105/1/22 113/1/19 204/1/66
f 205/1/66 110/1/12 116/1/9 206/1/66
f 207/1/66 71/1/8 70/1/5 88/1/66
f 92/1/4 196/1/66 87/1/66 89/1/1
f 195/1/66 96/1/68 95/1/29 197/1/66
f 198/1/66 97/1/27 100/1/69 200/1/66
f 103/1/17 102/1/71 202/1/66 208/1/66
f 106/1/24 105/1/22 203/1/66 199/1/66
f 110/1/12 205/1/66 201/1/66 111/1/13
f 208/1/66 204/1/66 113/1/19 103/1/17
f 206/1/66 116/1/9 71/1/8 207/1/66
f 209/1/6 180/1/6 179/1/7 210/1/7
f 211/1/2 212/1/3 182/1/3 181/1/2
f 213/1/30 184/1/30 183/1/67 214/1/67
f 186/1/26 185/1/28 215/1/28 216/1/26
f 188/1/70 187/1/18 217/1/18 218/1/70
f 219/1/23 220/1/21 190/1/21 189/1/23
f 221/1/72 222/1/11 192/1/11 191/1/72
f 193/1/20 223/1/20 217/1/18 187/1/18
f 224/1/10 210/1/7 179/1/7 194/1/10
f 209/1/6 211/1/2 181/1/2 180/1/6
f 214/1/67 183/1/67 182/1/3 212/1/3
f 213/1/30 215/1/28 185/1/28 184/1/30
f 216/1/26 219/1/23 189/1/23 186/1/26
f 188/1/70 218/1/70 221/1/72 191/1/72
f 220/1/21 223/1/20 193/1/20 190/1/21
f 224/1/10 194/1/10 192/1/11 222/1/11
f 118/1/2 137/1/2 135/1/3 117/1/3
f 142/1/6 137/1/2 118/1/2 119/1/6
f 143/1/7 142/1/6 119/1/6 120/1/7
f 121/1/10 133/1/10 143/1/7 120/1/7
f 134/1/11 133/1/10 121/1/10 122/1/11
f 122/1/11 123/1/14 146/1/14 134/1/11
f 138/1/16 146/1/14 123/1/14 124/1/16
f 125/1/18 139/1/18 138/1/16 124/1/16
f 147/1/20 139/1/18 125/1/18 126/1/20
f 147/1/20 126/1/20 127/1/21 140/1/21
f 140/1/21 127/1/21 128/1/23 141/1/23
f 148/1/26 141/1/23 128/1/23 129/1/26
f 144/1/28 148/1/26 129/1/26 130/1/28
f 131/1/30 145/1/30 144/1/28 130/1/28
f 117/1/3 135/1/3 136/1/33 132/1/33
f 132/1/33 136/1/33 145/1/30 131/1/30
f 209/1/6 210/1/7 163/1/7 164/1/6
f 211/1/2 166/1/2 165/1/3 212/1/3
f 213/1/30 214/1/67 168/1/67 167/1/30
f 170/1/28 169/1/26 216/1/26 215/1/28
f 218/1/70 217/1/18 171/1/18 172/1/70
f 219/1/23 174/1/23 173/1/21 220/1/21
f 175/1/11 222/1/11 221/1/72 176/1/72
f 177/1/20 171/1/18 217/1/18 223/1/20
f 163/1/7 210/1/7 224/1/10 178/1/10
f 164/1/6 166/1/2 211/1/2 209/1/6
f 214/1/67 212/1/3 165/1/3 168/1/67
f 167/1/30 170/1/28 215/1/28 213/1/30
f 219/1/23 216/1/26 169/1/26 174/1/23
f 218/1/70 172/1/70 176/1/72 221/1/72
f 223/1/20 220/1/21 173/1/21 177/1/20
f 222/1/11 175/1/11 178/1/10 224/1/10
f 204/1/66 208/1/66 225/1/66
f 40/1/37 39/1/37 226/1/37
f 39/1/37 161/1/37 226/1/37
f 161/1/37 158/1/37 226/1/37
f 158/1/37 157/1/37 226/1/37
f 157/1/37 156/1/37 226/1/37
f 156/1/37 155/1/37 226/1/37
f 155/1/37 154/1/37 226/1/37
f 154/1/37 153/1/37 226/1/37
f 153/1/37 151/1/37 226/1/37
f 151/1/37 152/1/37 226/1/37
f 152/1/37 149/1/37 226/1/37
f 149/1/37 150/1/37 226/1/37
f 150/1/37 162/1/37 226/1/37
f 162/1/37 160/1/37 226/1/37
f 160/1/37 159/1/37 226/1/37
f 159/1/37 40/1/37 226/1/37
f 208/1/66 202/1/66 225/1/66
f 202/1/66 201/1/66 225/1/66
f 201/1/66 205/1/66 225/1/66
f 205/1/66 206/1/66 225/1/66
f 206/1/66 207/1/66 225/1/66
f 207/1/66 88/1/66 225/1/66
f 88/1/66 87/1/66 225/1/66
f 87/1/66 196/1/66 225/1/66
f 196/1/66 195/1/66 225/1/66
f 195/1/66 197/1/66 225/1/66
f 197/1/66 198/1/66 225/1/66
f 198/1/66 200/1/66 225/1/66
f 200/1/66 199/1/66 225/1/66
f 199/1/66 203/1/66 225/1/66
f 203/1/66 204/1/66 225/1/66
