# Blender v2.75 (sub 0) OBJ File: 'Kitchen collection_blend.blend'
# www.blender.org
mtllib glass_4.mtl
o glass_4
v 3.455901 10.686900 0.000252
v 3.192806 10.686900 1.322733
v 3.181106 10.507100 1.317933
v 3.443301 10.507100 0.000251
v 2.443528 10.686900 2.443881
v 2.434629 10.507100 2.434980
v 1.317477 10.507100 3.181303
v 1.322275 10.686900 3.193003
v -0.000244 10.507100 3.443311
v -0.000244 10.686900 3.455911
v -1.317924 10.507100 3.181118
v -1.322728 10.686900 3.192819
v -2.443874 10.686900 2.443541
v -2.434969 10.507100 2.434641
v -3.181297 10.507100 1.317489
v -3.192997 10.686900 1.322289
v -3.455901 10.686900 -0.000230
v -3.443301 10.507100 -0.000229
v -3.192812 10.686900 -1.322711
v -3.181112 10.507101 -1.317911
v -2.434629 10.507101 -2.434958
v -2.443534 10.686900 -2.443859
v -1.322281 10.686900 -3.192981
v -1.317477 10.507101 -3.181281
v 0.000238 10.507101 -3.443289
v 0.000238 10.686900 -3.455989
v 1.322722 10.686900 -3.192797
v 1.317924 10.507101 -3.181097
v 2.443868 10.686900 -2.443519
v 2.434969 10.507101 -2.434619
v 3.192991 10.686900 -1.322267
v 3.181291 10.507101 -1.317468
v -1.746100 0.066200 -0.000113
v -2.701801 -0.066200 -0.000179
v -2.496129 -0.066200 -1.034164
v -1.613158 0.066200 -0.668303
v 2.701801 -0.066200 0.000197
v 2.747500 0.585600 0.000201
v 2.538323 0.585600 1.051586
v 2.496123 -0.066200 1.034083
v 1.942664 0.585600 1.942944
v 1.910365 -0.066200 1.910642
v 1.051223 0.585600 2.538482
v 1.033723 -0.066200 2.496281
v -0.000197 0.585599 2.747509
v -0.000191 -0.066200 2.701809
v -1.051575 0.585600 2.538336
v -1.034075 -0.066200 2.496037
v -1.942939 0.585600 1.942674
v -1.910633 -0.066200 1.910376
v -2.538478 0.585600 1.051232
v -2.496278 -0.066200 1.033736
v -2.747500 0.585600 -0.000182
v -2.538329 0.585600 -1.051567
v -1.942670 0.585600 -1.942926
v -1.910365 -0.066200 -1.910624
v -1.051223 0.585600 -2.538464
v -1.033723 -0.066200 -2.496263
v 0.000191 0.585600 -2.747491
v 0.000185 -0.066200 -2.701791
v 1.051575 0.585600 -2.538317
v 1.034176 -0.066200 -2.496119
v 1.942933 0.585600 -1.942655
v 1.910633 -0.066200 -1.910358
v 2.496272 -0.066200 -1.033817
v 2.538472 0.585600 -1.051214
v 1.746100 0.066200 0.000131
v 1.613152 0.066200 0.668321
v 0.901175 0.304000 0.373372
v 0.975502 0.304000 0.000077
v 0.000119 0.066200 -1.746091
v -0.668091 0.066200 -1.613237
v -0.000125 0.066200 1.746110
v 0.668085 0.066200 1.613256
v 1.613241 0.066200 -0.668078
v 1.234788 0.066200 -1.234605
v -1.613247 0.066200 0.668097
v -1.234788 0.066200 1.234623
v -1.234615 0.066200 -1.234776
v 1.234615 0.066200 1.234795
v 0.668305 0.066200 -1.613144
v -0.668311 0.066200 1.613163
v 2.860105 2.190500 0.000209
v 2.642322 2.190500 1.094693
v 2.022260 2.190500 2.022551
v 1.094317 2.190500 2.642486
v -0.000203 2.190500 2.860110
v -1.094681 2.190500 2.642333
v -2.022541 2.190500 2.022269
v -2.642477 2.190500 1.094325
v -2.860099 2.190500 -0.000190
v -2.642328 2.190500 -1.094674
v -2.022260 2.190500 -2.022531
v -1.094317 2.190500 -2.642467
v 0.000197 2.190500 -2.860090
v 1.094681 2.190500 -2.642314
v 2.022541 2.190500 -2.022250
v 2.642471 2.190500 -1.094306
v 3.136605 9.820400 1.299529
v 3.395200 9.820400 0.000247
v 2.400631 9.820400 2.400878
v 1.299077 9.820400 3.136801
v -0.000238 9.820400 3.395210
v -1.299518 9.820400 3.136620
v -2.400869 9.820400 2.400543
v -3.136790 9.820400 1.299092
v -3.395200 9.820400 -0.000226
v -3.136605 9.820401 -1.299507
v -2.400529 9.820401 -2.400956
v -1.299083 9.820401 -3.136779
v 0.000232 9.820401 -3.395189
v 1.299512 9.820401 -3.136599
v 2.400970 9.820401 -2.400622
v 3.136790 9.820401 -1.299071
v -2.346337 10.686900 -2.346652
v -1.269692 10.686900 -3.065877
v 2.346337 10.686900 2.346674
v 1.269686 10.686900 3.065900
v 1.270109 10.686900 -3.065701
v 2.346665 10.686900 -2.346325
v -1.270115 10.686900 3.065723
v -2.346665 10.686900 2.346348
v -3.065711 10.686900 -1.270103
v -3.318399 10.686900 -0.000220
v 0.000226 10.686900 -3.318389
v -0.000232 10.686900 3.318411
v 3.065884 10.686900 -1.269675
v -3.065884 10.686900 1.269698
v 3.065711 10.686900 1.270125
v 3.318399 10.686900 0.000242
v -1.918668 1.873100 -1.918924
v -1.866674 0.801900 -1.866920
v -1.010132 0.801900 -2.439161
v -1.038229 1.873100 -2.507063
v -2.439034 0.801900 -1.010460
v -2.506924 1.873100 -1.038565
v -2.713495 1.873100 -0.000180
v -2.639997 0.801900 -0.000175
v -2.439171 0.801900 1.010139
v -2.507073 1.873100 1.038235
v -1.918936 1.873100 1.918676
v -1.866931 0.801900 1.866679
v -0.000191 1.873100 2.713510
v -0.000185 0.801900 2.640009
v -1.010472 0.801900 2.439039
v -1.038581 1.873100 2.506937
v 2.713603 1.873100 0.000198
v 2.507073 1.873100 -1.038216
v 2.439165 0.801900 -1.010121
v 2.640003 0.801900 0.000193
v 1.038224 1.873100 2.507082
v 1.918668 1.873100 1.918943
v 1.866668 0.801900 1.866939
v 1.010132 0.801900 2.439180
v 1.010472 0.801900 -2.439020
v 1.866925 0.801900 -1.866660
v 1.918936 1.873100 -1.918657
v 1.038575 1.873100 -2.506918
v 2.439028 0.801900 1.010479
v 2.506924 1.873100 1.038584
v 0.000179 0.801900 -2.639991
v 0.000185 1.873101 -2.713590
v -2.338237 10.521201 -2.338652
v -1.265389 10.521201 -3.055377
v -3.307098 10.521200 -0.000219
v -3.055215 10.521201 -1.265802
v -3.055388 10.521200 1.265298
v -2.338564 10.521200 2.338248
v -1.265812 10.521200 3.055223
v -0.000232 10.521200 3.307011
v 3.055382 10.521201 -1.265376
v 3.307098 10.521200 0.000241
v 1.265389 10.521200 3.055399
v 2.338332 10.521200 2.338574
v 1.265812 10.521201 -3.055201
v 2.338660 10.521201 -2.338326
v 3.055209 10.521200 1.265723
v 0.000226 10.521201 -3.307089
v -2.285641 9.436200 -2.285948
v -1.236898 9.436200 -2.986575
v -3.232598 9.436200 -0.000214
v -2.986413 9.436200 -1.237297
v -2.986586 9.436200 1.236803
v -2.285957 9.436200 2.285652
v -0.000226 9.436200 3.232610
v -1.237309 9.436200 2.986425
v 3.232598 9.436200 0.000236
v 2.986586 9.436200 -1.236881
v 2.285641 9.436200 2.285970
v 1.236892 9.436200 2.986597
v 1.237303 9.436200 -2.986403
v 2.285957 9.436200 -2.285630
v 2.986413 9.436200 1.237319
v 0.000221 9.436200 -3.232589
v -2.202642 0.801900 -0.912544
v -1.685685 0.801900 -1.686008
v -2.202767 0.801900 0.912256
v -2.384096 0.801900 -0.000157
v -0.912553 0.801900 2.202646
v -1.685917 0.801900 1.685692
v 0.912249 0.801900 2.202773
v -0.000167 0.801900 2.384109
v 1.686013 0.801900 -1.685773
v 2.202761 0.801900 -0.912237
v 2.202636 0.801900 0.912563
v 1.685780 0.801900 1.685927
v 0.000161 0.801900 -2.384191
v 0.912553 0.801900 -2.202627
v -0.912249 0.801900 -2.202754
v 2.384198 0.801900 0.000175
v 0.000000 0.801900 0.000009
v -0.373238 0.304000 -0.901217
v 0.000066 0.304000 -0.975491
v -0.689650 0.304000 -0.689839
v -0.901175 0.304000 -0.373354
v -0.975400 0.304000 -0.000059
v -0.901228 0.304000 0.373246
v -0.373363 0.304000 0.901183
v -0.689751 0.304000 0.689661
v -0.000072 0.304000 0.975410
v 0.373238 0.304000 0.901235
v 0.901228 0.304000 -0.373228
v 0.689852 0.304000 -0.689743
v 0.689751 0.304000 0.689757
v 0.373363 0.304000 -0.901165
v 0.000000 0.304000 0.000009
vt 0.000000 0.000000
vn 0.768800 0.639500 0.000000
vn 0.710200 0.639500 0.294200
vn 0.921600 -0.069900 0.381800
vn 0.997500 -0.070000 0.000100
vn 0.543500 0.639500 0.543600
vn 0.705300 -0.069900 0.705400
vn 0.381700 -0.069900 0.921600
vn 0.294100 0.639500 0.710300
vn -0.000100 -0.070000 0.997500
vn -0.000000 0.639500 0.768800
vn -0.381800 -0.070000 0.921600
vn -0.294200 0.639500 0.710200
vn -0.543600 0.639500 0.543500
vn -0.705400 -0.070000 0.705300
vn -0.921600 -0.070000 0.381700
vn -0.710300 0.639500 0.294100
vn -0.768800 0.639500 -0.000000
vn -0.997500 -0.070000 -0.000100
vn -0.710200 0.639500 -0.294200
vn -0.921600 -0.070000 -0.381800
vn -0.705300 -0.069900 -0.705400
vn -0.543500 0.639500 -0.543600
vn -0.294100 0.639500 -0.710300
vn -0.381700 -0.070000 -0.921600
vn 0.000100 -0.070100 -0.997500
vn 0.000000 0.639400 -0.768900
vn 0.294200 0.639500 -0.710300
vn 0.381800 -0.070000 -0.921600
vn 0.543600 0.639500 -0.543500
vn 0.705400 -0.069900 -0.705300
vn 0.710300 0.639500 -0.294100
vn 0.921600 -0.069900 -0.381700
vn 0.207100 -0.978300 0.000000
vn -0.679100 -0.734000 -0.000000
vn -0.627500 -0.734000 -0.259900
vn 0.191300 -0.978300 0.079200
vn 0.679100 -0.734000 0.000000
vn 0.997500 -0.069900 0.000100
vn 0.627400 -0.734000 0.259900
vn 0.480200 -0.734000 0.480300
vn 0.381600 -0.069900 0.921600
vn 0.259800 -0.734000 0.627500
vn -0.000100 -0.069900 0.997500
vn -0.000100 -0.734000 0.679100
vn -0.259900 -0.734000 0.627400
vn -0.705400 -0.069900 0.705300
vn -0.480200 -0.734000 0.480200
vn -0.921600 -0.069900 0.381600
vn -0.627500 -0.734000 0.259800
vn -0.997500 -0.069900 -0.000100
vn -0.921600 -0.069900 -0.381800
vn -0.480200 -0.734000 -0.480300
vn -0.381600 -0.069900 -0.921600
vn -0.259800 -0.734000 -0.627500
vn 0.000100 -0.069900 -0.997500
vn 0.000000 -0.734000 -0.679100
vn 0.381800 -0.069900 -0.921600
vn 0.259900 -0.734000 -0.627500
vn 0.480300 -0.734000 -0.480200
vn 0.627500 -0.734000 -0.259800
vn 0.921600 -0.069900 -0.381600
vn -0.207100 -0.978300 0.000000
vn -0.191300 -0.978300 -0.079300
vn -0.154500 -0.985900 -0.064000
vn -0.167200 -0.985900 0.000000
vn 0.000000 -0.978300 0.207100
vn 0.079200 -0.978300 0.191300
vn 0.000000 -0.978300 -0.207100
vn -0.079200 -0.978300 -0.191300
vn -0.191300 -0.978300 0.079200
vn -0.146400 -0.978300 0.146400
vn 0.191300 -0.978300 -0.079200
vn 0.146400 -0.978300 -0.146400
vn 0.146400 -0.978300 0.146400
vn -0.146400 -0.978300 -0.146400
vn -0.079300 -0.978300 0.191300
vn 0.079300 -0.978300 -0.191300
vn -0.381800 -0.069900 0.921600
vn -0.921600 -0.069900 0.381700
vn -0.381700 -0.069900 -0.921600
vn 0.446500 0.775400 0.446500
vn 0.241600 0.775400 0.583400
vn -0.446400 0.775400 -0.446500
vn -0.241600 0.775400 -0.583400
vn -0.241700 0.775400 0.583400
vn -0.446500 0.775400 0.446500
vn 0.241600 0.775400 -0.583300
vn 0.446400 0.775500 -0.446300
vn 0.583400 0.775400 0.241600
vn 0.631500 0.775400 0.000000
vn -0.000000 0.775400 0.631500
vn 0.000000 0.775400 -0.631400
vn -0.583500 0.775400 0.241600
vn 0.583300 0.775400 -0.241600
vn -0.583300 0.775400 -0.241700
vn -0.631500 0.775400 -0.000000
vn 0.705400 0.068500 0.705500
vn 0.511200 0.690700 0.511300
vn 0.276700 0.690700 0.668100
vn 0.381700 0.068500 0.921700
vn 0.668100 0.690700 0.276700
vn 0.921700 0.068500 0.381800
vn 0.997700 0.068500 0.000100
vn 0.723100 0.690700 0.000000
vn 0.668100 0.690700 -0.276700
vn 0.921800 0.068500 -0.381700
vn 0.705500 0.068500 -0.705400
vn 0.511300 0.690700 -0.511200
vn 0.000100 0.068500 -0.997700
vn 0.000000 0.690700 -0.723100
vn 0.276700 0.690700 -0.668100
vn 0.381800 0.068500 -0.921700
vn -0.997700 0.068500 -0.000100
vn -0.921700 0.068500 0.381700
vn -0.668100 0.690700 0.276700
vn -0.723100 0.690800 -0.000000
vn -0.381700 0.068500 -0.921700
vn -0.705400 0.068500 -0.705500
vn -0.511200 0.690700 -0.511300
vn -0.276700 0.690700 -0.668100
vn -0.276700 0.690700 0.668000
vn -0.511300 0.690700 0.511200
vn -0.705500 0.068500 0.705400
vn -0.381800 0.068500 0.921700
vn -0.668000 0.690700 -0.276700
vn -0.921700 0.068500 -0.381800
vn -0.000000 0.690800 0.723100
vn -0.000100 0.068500 0.997700
vn 0.705400 0.068400 0.705500
vn 0.381700 0.068400 0.921700
vn 0.997700 0.068300 0.000100
vn 0.921700 0.068400 0.381800
vn 0.921700 0.068500 -0.381700
vn -0.921700 0.068300 0.381700
vn -0.997700 0.068400 -0.000100
vn -0.705400 0.068500 -0.705400
vn -0.381800 0.068300 0.921700
vn -0.705500 0.068300 0.705400
vn -0.921700 0.068400 -0.381800
vn -0.000100 0.068300 0.997700
vn 0.705500 0.068400 -0.705400
vn 0.000000 1.000000 0.000000
vn 0.064000 -0.985900 0.154500
vn 0.000000 -0.985900 0.167200
vn 0.118200 -0.985900 0.118200
vn 0.154500 -0.985900 0.064000
vn 0.167200 -0.985900 0.000000
vn 0.154500 -0.985900 -0.064000
vn 0.064000 -0.985900 -0.154500
vn 0.118200 -0.985900 -0.118200
vn 0.000000 -0.985900 -0.167200
vn -0.064000 -0.985900 -0.154500
vn -0.154500 -0.985900 0.064000
vn -0.118200 -0.985900 0.118200
vn -0.118200 -0.985900 -0.118200
vn -0.064000 -0.985900 0.154500
vn 0.000000 -1.000000 0.000000
usemtl jug_glass_2
s 1
f 1/1/1 2/1/2 3/1/3 4/1/4
f 3/1/3 2/1/2 5/1/5 6/1/6
f 7/1/7 6/1/6 5/1/5 8/1/8
f 9/1/9 7/1/7 8/1/8 10/1/10
f 11/1/11 9/1/9 10/1/10 12/1/12
f 13/1/13 14/1/14 11/1/11 12/1/12
f 15/1/15 14/1/14 13/1/13 16/1/16
f 17/1/17 18/1/18 15/1/15 16/1/16
f 17/1/17 19/1/19 20/1/20 18/1/18
f 21/1/21 20/1/20 19/1/19 22/1/22
f 21/1/21 22/1/22 23/1/23 24/1/24
f 25/1/25 24/1/24 23/1/23 26/1/26
f 27/1/27 28/1/28 25/1/25 26/1/26
f 27/1/27 29/1/29 30/1/30 28/1/28
f 31/1/31 1/1/1 4/1/4 32/1/32
f 30/1/30 29/1/29 31/1/31 32/1/32
f 33/1/33 34/1/34 35/1/35 36/1/36
f 37/1/37 38/1/38 39/1/3 40/1/39
f 41/1/6 42/1/40 40/1/39 39/1/3
f 42/1/40 41/1/6 43/1/41 44/1/42
f 45/1/43 46/1/44 44/1/42 43/1/41
f 46/1/44 45/1/43 47/1/11 48/1/45
f 49/1/46 50/1/47 48/1/45 47/1/11
f 49/1/46 51/1/48 52/1/49 50/1/47
f 34/1/34 52/1/49 51/1/48 53/1/50
f 34/1/34 53/1/50 54/1/51 35/1/35
f 35/1/35 54/1/51 55/1/21 56/1/52
f 56/1/52 55/1/21 57/1/53 58/1/54
f 57/1/53 59/1/55 60/1/56 58/1/54
f 60/1/56 59/1/55 61/1/57 62/1/58
f 63/1/30 64/1/59 62/1/58 61/1/57
f 65/1/60 66/1/61 38/1/38 37/1/37
f 65/1/60 64/1/59 63/1/30 66/1/61
f 67/1/62 68/1/63 69/1/64 70/1/65
f 71/1/66 72/1/67 58/1/54 60/1/56
f 46/1/44 73/1/68 74/1/69 44/1/42
f 64/1/59 65/1/60 75/1/70 76/1/71
f 50/1/47 52/1/49 77/1/72 78/1/73
f 56/1/52 79/1/74 36/1/36 35/1/35
f 42/1/40 80/1/75 68/1/63 40/1/39
f 60/1/56 62/1/58 81/1/76 71/1/66
f 73/1/68 46/1/44 48/1/45 82/1/77
f 67/1/62 75/1/70 65/1/60 37/1/37
f 37/1/37 40/1/39 68/1/63 67/1/62
f 77/1/72 52/1/49 34/1/34 33/1/33
f 79/1/74 56/1/52 58/1/54 72/1/67
f 42/1/40 44/1/42 74/1/69 80/1/75
f 62/1/58 64/1/59 76/1/71 81/1/76
f 78/1/73 82/1/77 48/1/45 50/1/47
f 38/1/38 83/1/38 84/1/3 39/1/3
f 41/1/6 39/1/3 84/1/3 85/1/6
f 85/1/6 86/1/7 43/1/41 41/1/6
f 43/1/41 86/1/7 87/1/43 45/1/43
f 47/1/11 45/1/43 87/1/43 88/1/78
f 49/1/46 47/1/11 88/1/78 89/1/46
f 51/1/48 49/1/46 89/1/46 90/1/79
f 90/1/79 91/1/50 53/1/50 51/1/48
f 54/1/51 53/1/50 91/1/50 92/1/51
f 93/1/21 55/1/21 54/1/51 92/1/51
f 57/1/53 55/1/21 93/1/21 94/1/80
f 94/1/80 95/1/55 59/1/55 57/1/53
f 59/1/55 95/1/55 96/1/57 61/1/57
f 97/1/30 63/1/30 61/1/57 96/1/57
f 38/1/38 66/1/61 98/1/32 83/1/38
f 66/1/61 63/1/30 97/1/30 98/1/32
f 3/1/3 99/1/3 100/1/38 4/1/4
f 3/1/3 6/1/6 101/1/6 99/1/3
f 7/1/7 102/1/7 101/1/6 6/1/6
f 102/1/7 7/1/7 9/1/9 103/1/43
f 104/1/78 103/1/43 9/1/9 11/1/11
f 104/1/78 11/1/11 14/1/14 105/1/46
f 15/1/15 106/1/79 105/1/46 14/1/14
f 107/1/50 106/1/79 15/1/15 18/1/18
f 107/1/50 18/1/18 20/1/20 108/1/51
f 20/1/20 21/1/21 109/1/21 108/1/51
f 109/1/21 21/1/21 24/1/24 110/1/80
f 25/1/25 111/1/55 110/1/80 24/1/24
f 28/1/28 112/1/57 111/1/55 25/1/25
f 112/1/57 28/1/28 30/1/30 113/1/30
f 4/1/4 100/1/38 114/1/32 32/1/32
f 32/1/32 114/1/32 113/1/30 30/1/30
f 23/1/23 22/1/22 115/1/81 116/1/82
f 5/1/5 117/1/83 118/1/84 8/1/8
f 29/1/29 27/1/27 119/1/85 120/1/86
f 121/1/87 122/1/88 13/1/13 12/1/12
f 123/1/89 19/1/19 17/1/17 124/1/90
f 116/1/82 125/1/91 26/1/26 23/1/23
f 10/1/10 8/1/8 118/1/84 126/1/92
f 120/1/86 127/1/93 31/1/31 29/1/29
f 128/1/94 16/1/16 13/1/13 122/1/88
f 123/1/89 115/1/81 22/1/22 19/1/19
f 5/1/5 2/1/2 129/1/95 117/1/83
f 125/1/91 119/1/85 27/1/27 26/1/26
f 126/1/92 121/1/87 12/1/12 10/1/10
f 130/1/96 1/1/1 31/1/31 127/1/93
f 1/1/1 130/1/96 129/1/95 2/1/2
f 128/1/94 124/1/90 17/1/17 16/1/16
f 131/1/97 132/1/98 133/1/99 134/1/100
f 135/1/101 136/1/102 137/1/103 138/1/104
f 139/1/105 140/1/106 141/1/107 142/1/108
f 143/1/109 144/1/110 145/1/111 146/1/112
f 147/1/113 148/1/114 149/1/115 150/1/116
f 151/1/117 152/1/118 153/1/119 154/1/120
f 155/1/121 156/1/122 157/1/123 158/1/124
f 159/1/125 160/1/126 147/1/113 150/1/116
f 133/1/99 161/1/127 162/1/128 134/1/100
f 135/1/101 132/1/98 131/1/97 136/1/102
f 139/1/105 138/1/104 137/1/103 140/1/106
f 146/1/112 145/1/111 142/1/108 141/1/107
f 151/1/117 154/1/120 144/1/110 143/1/109
f 157/1/123 156/1/122 149/1/115 148/1/114
f 159/1/125 153/1/119 152/1/118 160/1/126
f 158/1/124 162/1/128 161/1/127 155/1/121
f 115/1/81 163/1/129 164/1/130 116/1/82
f 124/1/90 165/1/131 166/1/132 123/1/89
f 167/1/133 128/1/94 122/1/88 168/1/107
f 169/1/112 121/1/87 126/1/92 170/1/109
f 171/1/134 172/1/135 130/1/96 127/1/93
f 173/1/117 118/1/84 117/1/83 174/1/136
f 120/1/86 119/1/85 175/1/137 176/1/138
f 129/1/95 130/1/96 172/1/135 177/1/139
f 116/1/82 164/1/130 178/1/140 125/1/91
f 163/1/129 115/1/81 123/1/89 166/1/132
f 124/1/90 128/1/94 167/1/133 165/1/131
f 169/1/112 168/1/107 122/1/88 121/1/87
f 118/1/84 173/1/117 170/1/109 126/1/92
f 127/1/93 120/1/86 176/1/138 171/1/134
f 177/1/139 174/1/136 117/1/83 129/1/95
f 178/1/140 175/1/137 119/1/85 125/1/91
f 163/1/129 179/1/97 180/1/100 164/1/130
f 181/1/103 182/1/102 166/1/132 165/1/131
f 183/1/133 167/1/133 168/1/107 184/1/141
f 170/1/109 185/1/109 186/1/112 169/1/112
f 187/1/113 172/1/135 171/1/134 188/1/114
f 174/1/136 189/1/118 190/1/117 173/1/117
f 176/1/138 175/1/137 191/1/124 192/1/123
f 177/1/139 172/1/135 187/1/113 193/1/126
f 194/1/128 178/1/140 164/1/130 180/1/100
f 182/1/102 179/1/97 163/1/129 166/1/132
f 181/1/103 165/1/131 167/1/133 183/1/133
f 168/1/107 169/1/112 186/1/112 184/1/141
f 170/1/109 173/1/117 190/1/117 185/1/109
f 188/1/114 171/1/134 176/1/138 192/1/123
f 174/1/136 177/1/139 193/1/126 189/1/118
f 191/1/124 175/1/137 178/1/140 194/1/128
f 83/1/38 100/1/38 99/1/3 84/1/3
f 101/1/6 85/1/6 84/1/3 99/1/3
f 101/1/6 102/1/7 86/1/7 85/1/6
f 102/1/7 103/1/43 87/1/43 86/1/7
f 88/1/78 87/1/43 103/1/43 104/1/78
f 105/1/46 89/1/46 88/1/78 104/1/78
f 89/1/46 105/1/46 106/1/79 90/1/79
f 91/1/50 90/1/79 106/1/79 107/1/50
f 107/1/50 108/1/51 92/1/51 91/1/50
f 92/1/51 108/1/51 109/1/21 93/1/21
f 93/1/21 109/1/21 110/1/80 94/1/80
f 94/1/80 110/1/80 111/1/55 95/1/55
f 95/1/55 111/1/55 112/1/57 96/1/57
f 97/1/30 96/1/57 112/1/57 113/1/30
f 98/1/32 114/1/32 100/1/38 83/1/38
f 97/1/30 113/1/30 114/1/32 98/1/32
f 195/1/142 196/1/142 132/1/98 135/1/101
f 139/1/105 197/1/142 198/1/142 138/1/104
f 199/1/142 200/1/142 142/1/108 145/1/111
f 144/1/110 154/1/120 201/1/142 202/1/142
f 149/1/115 156/1/122 203/1/142 204/1/142
f 153/1/119 159/1/125 205/1/142 206/1/142
f 161/1/127 207/1/142 208/1/142 155/1/121
f 133/1/99 132/1/98 196/1/142 209/1/142
f 195/1/142 135/1/101 138/1/104 198/1/142
f 142/1/108 200/1/142 197/1/142 139/1/105
f 199/1/142 145/1/111 144/1/110 202/1/142
f 210/1/142 150/1/116 149/1/115 204/1/142
f 201/1/142 154/1/120 153/1/119 206/1/142
f 208/1/142 203/1/142 156/1/122 155/1/121
f 210/1/142 205/1/142 159/1/125 150/1/116
f 133/1/99 209/1/142 207/1/142 161/1/127
f 191/1/124 194/1/128 162/1/128 158/1/124
f 189/1/118 193/1/126 160/1/126 152/1/118
f 148/1/114 188/1/114 192/1/123 157/1/123
f 185/1/109 190/1/117 151/1/117 143/1/109
f 186/1/112 146/1/112 141/1/107 184/1/141
f 183/1/133 140/1/106 137/1/103 181/1/103
f 179/1/97 182/1/102 136/1/102 131/1/97
f 162/1/128 194/1/128 180/1/100 134/1/100
f 187/1/113 147/1/113 160/1/126 193/1/126
f 157/1/123 192/1/123 191/1/124 158/1/124
f 151/1/117 190/1/117 189/1/118 152/1/118
f 187/1/113 188/1/114 148/1/114 147/1/113
f 185/1/109 143/1/109 146/1/112 186/1/112
f 183/1/133 184/1/141 141/1/107 140/1/106
f 137/1/103 136/1/102 182/1/102 181/1/103
f 180/1/100 179/1/97 131/1/97 134/1/100
f 201/1/142 206/1/142 211/1/142
f 203/1/142 208/1/142 211/1/142
f 205/1/142 210/1/142 211/1/142
f 207/1/142 209/1/142 211/1/142
f 196/1/142 195/1/142 211/1/142
f 198/1/142 197/1/142 211/1/142
f 200/1/142 199/1/142 211/1/142
f 202/1/142 201/1/142 211/1/142
f 204/1/142 203/1/142 211/1/142
f 206/1/142 205/1/142 211/1/142
f 208/1/142 207/1/142 211/1/142
f 209/1/142 196/1/142 211/1/142
f 195/1/142 198/1/142 211/1/142
f 197/1/142 200/1/142 211/1/142
f 199/1/142 202/1/142 211/1/142
f 210/1/142 204/1/142 211/1/142
f 212/1/143 72/1/67 71/1/66 213/1/144
f 214/1/145 215/1/146 36/1/36 79/1/74
f 77/1/72 33/1/33 216/1/147 217/1/148
f 218/1/149 82/1/77 78/1/73 219/1/150
f 74/1/69 73/1/68 220/1/151 221/1/152
f 76/1/71 75/1/70 222/1/153 223/1/154
f 68/1/63 80/1/75 224/1/155 69/1/64
f 71/1/66 81/1/76 225/1/156 213/1/144
f 72/1/67 212/1/143 214/1/145 79/1/74
f 216/1/147 33/1/33 36/1/36 215/1/146
f 77/1/72 217/1/148 219/1/150 78/1/73
f 73/1/68 82/1/77 218/1/149 220/1/151
f 75/1/70 67/1/62 70/1/65 222/1/153
f 80/1/75 74/1/69 221/1/152 224/1/155
f 223/1/154 225/1/156 81/1/76 76/1/71
f 70/1/65 69/1/64 226/1/157
f 69/1/64 224/1/155 226/1/157
f 224/1/155 221/1/152 226/1/157
f 221/1/152 220/1/151 226/1/157
f 220/1/151 218/1/149 226/1/157
f 218/1/149 219/1/150 226/1/157
f 219/1/150 217/1/148 226/1/157
f 217/1/148 216/1/147 226/1/157
f 216/1/147 215/1/146 226/1/157
f 215/1/146 214/1/145 226/1/157
f 214/1/145 212/1/143 226/1/157
f 212/1/143 213/1/144 226/1/157
f 213/1/144 225/1/156 226/1/157
f 225/1/156 223/1/154 226/1/157
f 223/1/154 222/1/153 226/1/157
f 222/1/153 70/1/65 226/1/157
